<svg xmlns="http://www.w3.org/2000/svg">

  <rect x="10" y="10" width="30" height="30" stroke="black" fill="none" stroke-width="5"/>
  <rect x="60" y="10" rx="10" ry="10" width="30" height="30" stroke="cyan" fill="yellow" stroke-width="5"/>

  <circle cx="120" cy="25" r="20" stroke="red" stroke-width="5"/>
  <ellipse cx="170" cy="25" rx="20" ry="5" stroke="magenta" fill="blue" stroke-width="5"/>

  <line x1="10" x2="50" y1="60" y2="80" stroke="orange" stroke-width="5"/>
  <polyline points="60 60 65 70 70 65 75 80 80 75 85 90 90 85 95 100 100 95"
      stroke="purple" fill="none" stroke-width="5"/>

  <polygon points="150 60 155 80 170 80 160 90 165 105 150 95 135 105 140 90 130 80 145 80"
      stroke="green" fill="none" stroke-width="5"/>

  <path d="M160,50 Q170,70 210,100 T190,70" fill="none" stroke="blue" stroke-width="5"/>
</svg>